<svg id="Layer_1" data-name="Layer 1" xmlns="http://www.w3.org/2000/svg" viewBox="0 0 436 436"><defs><style>.cls-1,.cls-2,.cls-3{isolation:isolate;}.cls-2,.cls-3{font-size:24px;font-family:Candal;}.cls-3{letter-spacing:-0.04em;}.cls-4{fill:#6f3a55;}.cls-5{fill:#fff;}.cls-6{fill:#ebebeb;}.cls-7{fill:#e69779;}.cls-8{fill:#d0826b;}</style></defs><g class="cls-1"><g class="cls-1"><text class="cls-2" transform="translate(115.75 378.97)"><tspan xml:space="preserve">    </tspan></text><text class="cls-3" transform="translate(149.17 378.97)">W</text><text class="cls-2" transform="translate(172.47 378.97)">ash your </text><text class="cls-2" transform="translate(115.75 407.77)">hands regularly</text></g></g><circle class="cls-4" cx="217.83" cy="184.16" r="160.33"/><path class="cls-5" d="M275.69,166.89h0L258.63,132a2.35,2.35,0,0,0-4.24,0l-17.07,34.93h0a21.37,21.37,0,0,0-2.2,10.15,21.63,21.63,0,0,0,21,20.65,21.34,21.34,0,0,0,19.52-30.8Z"/><path class="cls-6" d="M244.52,193.9a21.31,21.31,0,0,0,31.17-27h0l-7.39-15.14a46.77,46.77,0,0,1-2.89,17.73A48,48,0,0,1,244.52,193.9Z"/><path class="cls-5" d="M231.09,136.15h0L216.8,106.91a2,2,0,0,0-2.7-.85,2,2,0,0,0-.85.85L199,136.15h0a17.72,17.72,0,0,0-1.84,8.49,18.09,18.09,0,0,0,17.58,17.28,17.85,17.85,0,0,0,16.34-25.77Z"/><path class="cls-6" d="M232.94,144a17.72,17.72,0,0,0-1.85-7.89h0l-6-12.29a41.82,41.82,0,0,1-19,35.57,17.53,17.53,0,0,0,8.66,2.49,17.88,17.88,0,0,0,18.19-17.57Z"/><path class="cls-7" d="M306.52,207.39a13.26,13.26,0,0,0-16.65-4.83l-40.15,17.69a10,10,0,0,0-4.21-4.35l-47.17-25.34a10,10,0,0,0-8.63-.36h0l-43,18.34L164.8,247l18-7.68a7.42,7.42,0,0,1,5.74,0l37.66,15.24h0c.41.16.82.31,1.23.43h0a12.81,12.81,0,0,0,8.75-.58L300.68,226a13,13,0,0,0,5.84-18.61Z"/><path class="cls-8" d="M306.52,207.39a12.22,12.22,0,0,0-3.37-3.61A12.94,12.94,0,0,1,297,221l-.27.12-64.5,28.44a12.81,12.81,0,0,1-8.75.58h0q-.62-.18-1.23-.42h0l-37.66-15.24a7.47,7.47,0,0,0-5.74.05l-16.55,7,2.56,5.44,18-7.68a7.42,7.42,0,0,1,5.74,0l37.64,15.24h0c.41.16.82.31,1.23.43h0a12.81,12.81,0,0,0,8.75-.58L300.68,226a13,13,0,0,0,5.84-18.61Z"/><path class="cls-8" d="M250.8,223.92a10,10,0,0,1-1.14,5.58h0A10.11,10.11,0,0,1,236,233.62L188.8,208.33a10,10,0,0,1-4.25-4.46,10,10,0,0,0,5.25,8.06L237,237.22a10,10,0,0,0,13.83-13.3Z"/><path class="cls-5" d="M128.13,212.11l22.18,47.15a5.59,5.59,0,0,0,7.45,2.69h0l6.46-3a5.63,5.63,0,0,0,2.69-7.47L144.73,204.3a5.62,5.62,0,0,0-7.46-2.7h0l-6.45,3a5.61,5.61,0,0,0-2.71,7.46h0Z"/><polygon class="cls-8" points="164.82 247 168.2 245.56 150.12 207.11 146.74 208.56 164.82 247"/><path class="cls-6" d="M150.31,259.26a5.59,5.59,0,0,0,7.45,2.69h0l6.46-3a5.63,5.63,0,0,0,2.69-7.47l-4.65-9.92-16.85,7.16Z"/><path class="cls-8" d="M256.41,194.3a1.09,1.09,0,0,1-1.19-1,1.08,1.08,0,0,1,1-1.18h.25a15.72,15.72,0,0,0,15.71-15.71,1.09,1.09,0,0,1,2.17-.21.74.74,0,0,1,0,.21,17.89,17.89,0,0,1-17.9,17.9Z"/><path class="cls-8" d="M215,159.09a.91.91,0,1,1,0-1.82,13.17,13.17,0,0,0,13.15-13.15.91.91,0,0,1,1.82,0A15,15,0,0,1,215,159.09Z"/></svg>