<svg id="Layer_1" data-name="Layer 1" xmlns="http://www.w3.org/2000/svg" viewBox="0 0 436 436"><defs><style>.cls-1{font-size:24px;font-family:Candal;}.cls-2{fill:#6f3a55;}.cls-3{fill:#e69779;}.cls-4{fill:#d0826b;}.cls-5{fill:#fff;}.cls-6{fill:#c37762;}.cls-7{fill:#ebebeb;}</style></defs><text class="cls-1" transform="translate(160.68 378.97)">Maintain<tspan x="0" y="28.8">hygiene</tspan></text><circle class="cls-2" cx="217.83" cy="184.16" r="160.33"/><rect class="cls-3" x="163.68" y="189.4" width="109.67" height="84.09" rx="1.61"/><path class="cls-4" d="M263.44,189.4H241.7c.42,2.7.78,5.41,1,8.13a131.36,131.36,0,0,1-16.76,76h37.5a9.92,9.92,0,0,0,9.91-9.9V199.31a9.91,9.91,0,0,0-9.91-9.91Z"/><path class="cls-5" d="M196.15,214l-17.83-59.85a1.63,1.63,0,0,1,1.1-2.05,1.68,1.68,0,0,1,1.38.19,33.69,33.69,0,0,0,5.78,3A9.89,9.89,0,0,0,200,147.28l2.81-23.55a3.3,3.3,0,0,1,3.71-2.85,3.37,3.37,0,0,1,1.29.45c4.11,2.52,10.42,5.7,16,5.5a3.29,3.29,0,0,1,3.32,3.24,3.72,3.72,0,0,1-.14,1l-7.19,24.5a3.3,3.3,0,0,0,5.56,3.2l17.32-18.28a4.92,4.92,0,0,1,7-.24,5,5,0,0,1,1.13,1.56c1.14,2.6,2.85,5.17,5.41,6.46a5,5,0,0,1,2.33,6L238.87,214Z"/><rect class="cls-4" x="185.78" y="211.56" width="65.47" height="4.95"/><path class="cls-6" d="M243,216.49h8.28v-5h-8.1C243.11,213.22,243.06,214.87,243,216.49Z"/><path class="cls-7" d="M223.83,126.86c-4.57.16-9.64-2-13.59-4.13A130.4,130.4,0,0,1,224,141.34l3-10.24a3.28,3.28,0,0,0-2.18-4.09A3.35,3.35,0,0,0,223.83,126.86Z"/><path class="cls-7" d="M256.24,148.28c-2.56-1.29-4.27-3.86-5.41-6.46a4.93,4.93,0,0,0-8.08-1.32l-12.18,12.87a129.93,129.93,0,0,1,12.15,44.12c.12,1.34.18,2.68.26,4l15.54-47.24A5,5,0,0,0,256.24,148.28Z"/></svg>