<svg id="Layer_1" data-name="Layer 1" xmlns="http://www.w3.org/2000/svg" viewBox="0 0 436 436"><defs><style>.cls-1,.cls-2,.cls-3{isolation:isolate;}.cls-2,.cls-3{font-size:24px;font-family:Candal;}.cls-2{letter-spacing:-0.04em;}.cls-4{fill:#6f3a55;}.cls-5{fill:#fff;}.cls-6{fill:#ebebeb;}.cls-7{fill:#e4b89a;}</style></defs><g class="cls-1"><g class="cls-1"><text class="cls-2" transform="translate(139.93 378.97)">W</text><text class="cls-3" transform="translate(163.22 378.97)">ear a mask</text><text class="cls-3" transform="translate(131.57 407.77)">while heading</text></g></g><circle class="cls-4" cx="217.83" cy="184.16" r="160.33"/><path class="cls-5" d="M242.43,133l64.83,18.55c12.38,3.54,20.45,17.16,18.76,31.64l-1.11,9.27c-1.85,15.79-11.8,28.75-25.24,32.87l-52.59,16.13a90.58,90.58,0,0,1-53.37,0l-52.59-16.11c-13.44-4.12-23.39-17.08-25.24-32.89l-1.09-9.29c-1.69-14.48,6.38-28.1,18.76-31.64L198.38,133A79.67,79.67,0,0,1,242.43,133Z"/><path class="cls-6" d="M307.21,151.58l-6.81-2a31.91,31.91,0,0,1,4.5,20.54l-1.08,9.37C302,195.28,292,208.24,278.58,212.36L226,228.46a90.77,90.77,0,0,1-53.38,0l-48.18-14.8a34,34,0,0,0,16.68,11.71l52.57,16.11a90.74,90.74,0,0,0,53.37,0l52.59-16.1c13.44-4.12,23.39-17.08,25.24-32.87l1.09-9.29C327.66,168.74,319.59,155.12,307.21,151.58Z"/><path class="cls-6" d="M307.22,177.37a1.28,1.28,0,0,1-.39,0L242,158.82a78.38,78.38,0,0,0-43.27,0l-64.82,18.5a1.57,1.57,0,0,1-1.88-1.19h0a.21.21,0,0,1,0-.11,1.8,1.8,0,0,1,1.14-2.17L198,155.29a81.3,81.3,0,0,1,44.77,0l64.84,18.55a1.83,1.83,0,0,1,1.14,2.17A1.62,1.62,0,0,1,307.22,177.37Z"/><path class="cls-6" d="M307.22,193.09H307l-64.84-9.27a156.29,156.29,0,0,0-43.63,0l-64.84,9.27a1.61,1.61,0,0,1-1.75-1.46h0v-.14a1.76,1.76,0,0,1,1.36-2l64.84-9.27a158.81,158.81,0,0,1,44.41,0l64.86,9.27a1.77,1.77,0,0,1,1.36,2A1.65,1.65,0,0,1,307.22,193.09Z"/><path class="cls-6" d="M220.37,220.23a148.8,148.8,0,0,1-22.22-1.64l-64.84-9.8a1.75,1.75,0,0,1-1.34-2,1.59,1.59,0,0,1,1.62-1.55h.13l64.84,9.8a147.56,147.56,0,0,0,43.61,0l64.84-9.8a1.6,1.6,0,0,1,1.74,1.46h0v.08a1.77,1.77,0,0,1-1.35,2l-64.84,9.8A148.63,148.63,0,0,1,220.37,220.23Z"/><path class="cls-7" d="M307.59,173.84l-3-.87-.42,3.58,2.67.77a1.28,1.28,0,0,0,.39,0,1.62,1.62,0,0,0,1.51-1.36A1.85,1.85,0,0,0,307.59,173.84Z"/><path class="cls-7" d="M307.43,189.49l-5.71-.81c-.4,1.17-.86,2.31-1.35,3.42l6.67,1h.2a1.67,1.67,0,0,0,1.55-1.58A1.77,1.77,0,0,0,307.43,189.49Z"/><path class="cls-7" d="M307,205.23l-20,3a32.36,32.36,0,0,1-8.48,4.08l-5.31,1.62,34.21-5.14a1.77,1.77,0,0,0,1.35-2,1.63,1.63,0,0,0-1.68-1.56H307Z"/></svg>