<svg id="Layer_1" data-name="Layer 1" xmlns="http://www.w3.org/2000/svg" viewBox="0 0 436 436"><defs><style>.cls-1,.cls-2,.cls-3{isolation:isolate;}.cls-2,.cls-3{font-size:24px;font-family:Candal;}.cls-2{letter-spacing:-0.04em;}.cls-4{fill:#6f3a55;}.cls-5{fill:#e69779;}.cls-6{fill:#d0826b;}.cls-7{fill:#fff;}.cls-8{fill:#ebebeb;}.cls-9{fill:#e4b89a;}.cls-10{fill:#61354d;}.cls-11{fill:#d98e84;}.cls-12{fill:#eea391;}</style></defs><g class="cls-1"><g class="cls-1"><text class="cls-2" transform="translate(120.56 378.97)">A</text><text class="cls-3" transform="translate(136.04 378.97)">void crowded</text><text class="cls-3" transform="translate(120.56 407.77)"><tspan xml:space="preserve">        areas</tspan></text></g></g><circle class="cls-4" cx="217.83" cy="184.16" r="160.33"/><path class="cls-5" d="M226.13,118.71a9.92,9.92,0,0,0-6.18-9.19,9.88,9.88,0,0,0,.76-3.83,10.16,10.16,0,0,0-10.18-10.14h0a10.3,10.3,0,0,0-3.91.79,10.16,10.16,0,0,0-16.82-3.85A10.15,10.15,0,0,0,171,97.75v.9a10.17,10.17,0,0,0-10,10.15,10,10,0,0,0,1.17,4.7,10.16,10.16,0,0,0-1.82,14.22,9.77,9.77,0,0,0,2.25,2.15,8.34,8.34,0,0,0-.77,3.44,8,8,0,0,0,2,5.33,9.93,9.93,0,1,0,14-.69l0,0c-.28-.24-.56-.47-.86-.69a8.06,8.06,0,0,0-.87-9.13,10.11,10.11,0,0,0,1.25-11.27,10.11,10.11,0,0,0,4-8v-.9a10,10,0,0,0,7-3,10.14,10.14,0,0,0,12.6,4.1,10.17,10.17,0,0,0,6,6.18,10,10,0,0,0,.92,8.93,11,11,0,0,0-3.09,12.08,9.28,9.28,0,1,0,15,6.19,11,11,0,0,0,5.32-14.61,10.83,10.83,0,0,0-1.51-2.39A9.8,9.8,0,0,0,226.13,118.71Z"/><path class="cls-6" d="M226.13,118.71a9.92,9.92,0,0,0-6.18-9.19,9.88,9.88,0,0,0,.76-3.83,10.16,10.16,0,0,0-10.18-10.14h0a10.3,10.3,0,0,0-3.91.79A10.13,10.13,0,0,0,193.75,90a10,10,0,0,0-2,.94,21,21,0,0,1,18.33,20.79v18a20.88,20.88,0,0,1-8.27,16.69,9.28,9.28,0,0,0,18-4.09,11,11,0,0,0,5.32-14.61,10.83,10.83,0,0,0-1.51-2.39A9.78,9.78,0,0,0,226.13,118.71Z"/><path class="cls-7" d="M176.42,126.06a5.23,5.23,0,1,1-5.23-5.23h0A5.23,5.23,0,0,1,176.42,126.06Z"/><path class="cls-8" d="M218.39,126.06a5.23,5.23,0,1,1-5.23-5.23h0A5.23,5.23,0,0,1,218.39,126.06Z"/><path class="cls-9" d="M216.19,126.06a3,3,0,1,1-3-3A3,3,0,0,1,216.19,126.06Z"/><path class="cls-8" d="M174.22,126.06a3,3,0,1,1-3-3A3,3,0,0,1,174.22,126.06Z"/><path class="cls-7" d="M183.88,137.51l-.81,21.57a9.09,9.09,0,0,0,8.86,9.32h.22a9.08,9.08,0,0,0,9.08-9.08h0v-.23l-.79-21.57Z"/><path class="cls-8" d="M183.26,156.49a20.28,20.28,0,0,0,8.33,2,20.9,20.9,0,0,0,9.5-2l-.62-19H183.88Z"/><path class="cls-7" d="M213.16,133.36a21,21,0,0,1-21,21h-.58c-11.43-.31-20.4-10-20.4-21.41v-8.69a21,21,0,0,1,21-21h0a21,21,0,0,1,21,21h0Z"/><path class="cls-8" d="M206.32,108.78A20.86,20.86,0,0,1,210,120.67v9.1a21,21,0,0,1-21,21h-.58A20.51,20.51,0,0,1,175,145.24a20.88,20.88,0,0,0,38.14-11.88v-9.1A20.88,20.88,0,0,0,206.32,108.78Z"/><path class="cls-10" d="M184,127a1.84,1.84,0,0,1-3.68,0h0a1.85,1.85,0,0,1,1.83-1.85h0a1.83,1.83,0,0,1,1.85,1.83Z"/><path class="cls-10" d="M200.39,127a1.85,1.85,0,0,0,1.83,1.85,1.84,1.84,0,1,0,0-3.68h0A1.85,1.85,0,0,0,200.39,127Z"/><path class="cls-10" d="M189.94,144.24a.86.86,0,0,0-.86.85,1,1,0,0,0,0,.25,3.38,3.38,0,0,0,6.39,0,.84.84,0,0,0-.56-1.06h-.26Z"/><path class="cls-11" d="M192.25,136.86a1.21,1.21,0,0,1-.38,0,1.3,1.3,0,0,1-.85-.65.24.24,0,0,1,.09-.32h0a.24.24,0,0,1,.32.1.84.84,0,0,0,.55.41,1,1,0,0,0,.73-.1A1.06,1.06,0,0,0,193,135a1.24,1.24,0,0,0-1.33-.58.24.24,0,0,1-.11-.47h0a1.73,1.73,0,0,1,1.87.82,1.56,1.56,0,0,1-.5,2A1.27,1.27,0,0,1,192.25,136.86Z"/><ellipse class="cls-12" cx="202.93" cy="137.1" rx="3.06" ry="2.15"/><path class="cls-12" d="M178.54,137.1c0,1.19,1.38,2.15,3.07,2.15s3.06-1,3.06-2.15S183.3,135,181.61,135,178.54,135.91,178.54,137.1Z"/><path class="cls-5" d="M211.68,105a7.93,7.93,0,0,0-4.77,1.61,6.94,6.94,0,0,0-8.21-4.91,7.87,7.87,0,0,0-14.63-2.09,8.2,8.2,0,0,0-2.41-.38,7.89,7.89,0,0,0-7.87,7.87h0a8.61,8.61,0,0,0,.34,2.31,6.07,6.07,0,1,0,6.19,6.06v-.62a6.86,6.86,0,0,0,1.35.13,7.82,7.82,0,0,0,7-4.22,7.78,7.78,0,0,0,5-.06,7,7,0,0,0,8.86,4.42h0a6.69,6.69,0,0,0,1.48-.7,7.92,7.92,0,1,0,7.77-9.42Z"/><path class="cls-6" d="M211.68,105a8,8,0,0,0-2.6.44,20.63,20.63,0,0,1,1,6.33v8.9a7.92,7.92,0,0,0,3.24-15.5A8.23,8.23,0,0,0,211.68,105Z"/><path class="cls-5" d="M190.22,171.84a2.07,2.07,0,0,0,2.67-1.13,5.55,5.55,0,0,0,.23-3.2,40.33,40.33,0,0,0-9-20.18,17.93,17.93,0,0,0-5-4.42,8.56,8.56,0,0,0-6.51-.85,23.24,23.24,0,0,0-25.15-4.19c-4.92,2.35-8.79,6.4-12.53,10.37-3,3.2-6.09,6.49-7.76,10.55s-1.67,9.12,1.18,12.47"/><path class="cls-6" d="M193.12,167.51a40.33,40.33,0,0,0-9-20.18,17.93,17.93,0,0,0-5-4.42,8.53,8.53,0,0,0-6.5-.85,31,31,0,0,1,13.31,25.46v4.28h4.31a2.07,2.07,0,0,0,2.67-1.13A5.41,5.41,0,0,0,193.12,167.51Z"/><path class="cls-7" d="M136.21,175.48a7.73,7.73,0,1,1-7.73-7.73h0A7.73,7.73,0,0,1,136.21,175.48Z"/><path class="cls-8" d="M198.22,175.48a7.73,7.73,0,1,1-7.73-7.73h0a7.72,7.72,0,0,1,7.72,7.72h0Z"/><path class="cls-9" d="M195,175.48A4.48,4.48,0,1,1,190.5,171h0A4.49,4.49,0,0,1,195,175.48Z"/><path class="cls-8" d="M133,175.48a4.48,4.48,0,1,1-4.48-4.48h0A4.49,4.49,0,0,1,133,175.48Z"/><path class="cls-7" d="M147.24,192.36l-1.17,31.88A13.43,13.43,0,0,0,159.15,238h.34a13.41,13.41,0,0,0,13.43-13.41h0v-.35l-1.18-31.88Z"/><path class="cls-8" d="M146.32,220.45a29.87,29.87,0,0,0,12.3,3,30.75,30.75,0,0,0,14-2.92l-.92-28.12H147.24Z"/><path class="cls-7" d="M190.5,186.23a31,31,0,0,1-31,31h-.89c-16.89-.46-30.14-14.75-30.14-31.64v-12.8a31,31,0,0,1,31-31h0a31,31,0,0,1,31,31h0Z"/><path class="cls-8" d="M180.45,149.94a30.78,30.78,0,0,1,5.46,17.57V181a31,31,0,0,1-31,31H154a30.33,30.33,0,0,1-19.85-8.13,30.86,30.86,0,0,0,56.32-17.59V172.79A30.93,30.93,0,0,0,180.45,149.94Z"/><path class="cls-10" d="M147.32,176.8a2.71,2.71,0,1,1-2.71-2.71,2.71,2.71,0,0,1,2.71,2.71Z"/><path class="cls-10" d="M171.63,176.8a2.71,2.71,0,1,0,2.71-2.71,2.71,2.71,0,0,0-2.71,2.71Z"/><path class="cls-10" d="M156.19,202.36a1.26,1.26,0,0,0-1.27,1.25h0a1.2,1.2,0,0,0,.05.38,5,5,0,0,0,9.45,0,1.25,1.25,0,0,0-.82-1.57h0a1.21,1.21,0,0,0-.38-.06Z"/><path class="cls-5" d="M159.49,141.78h0c-16.16,0-29.57,10.19-31,26,.29.26,0,2.12,1.07,2.89a7.23,7.23,0,0,0,7.91,0c2.23-1.41,3.56-3.91,5.7-5.46,2.72-2,6.35-2.14,9.71-1.82s6.72,1,10,.54,6.73-2.62,7.44-5.91a10.73,10.73,0,0,0,3.07,7,30.3,30.3,0,0,0,6.16,4.65,18.61,18.61,0,0,0,6.48,3,8.6,8.6,0,0,0,4.41-.39A31,31,0,0,0,159.49,141.78Z"/><path class="cls-11" d="M159.6,191.45a2.46,2.46,0,0,1-1.79-1.06.35.35,0,0,1,.14-.47h0a.37.37,0,0,1,.49.14h0a1.21,1.21,0,0,0,.81.6,1.34,1.34,0,0,0,1.07-.15,1.56,1.56,0,0,0,.49-2,1.82,1.82,0,0,0-2-.85.36.36,0,0,1-.16-.7,2.54,2.54,0,0,1,2.75,1.22,2.29,2.29,0,0,1-.73,2.92A1.92,1.92,0,0,1,159.6,191.45Z"/><path class="cls-12" d="M179.91,191.79c0,1.75-2,3.18-4.53,3.18s-4.53-1.43-4.53-3.18,2-3.18,4.53-3.18S179.91,190,179.91,191.79Z"/><path class="cls-12" d="M139.32,191.79c0,1.75,2,3.18,4.53,3.18s4.53-1.43,4.53-3.18-2-3.18-4.53-3.18S139.32,190,139.32,191.79Z"/><path class="cls-6" d="M190.48,172.21a30.63,30.63,0,0,0-2.57-11.85h0c-.17-.39-.35-.79-.54-1.17a1.63,1.63,0,0,1-.11-.23l-.54-1c-.06-.11-.12-.22-.19-.33-.17-.31-.35-.62-.54-.92l-.25-.41c-.17-.28-.36-.55-.54-.83l-.31-.45c-.18-.26-.36-.51-.55-.75l-.37-.5-.55-.68-.44-.52c-.17-.2-.35-.41-.54-.61l-.5-.54-.53-.55-.58-.55-.36-.34a30.81,30.81,0,0,1,5.45,17.55v5.11h.16a8.6,8.6,0,0,0,4.41-.39Z"/><path class="cls-5" d="M266.07,124.53a1.73,1.73,0,0,0,2.22-1,4.4,4.4,0,0,0,.19-2.66,33.56,33.56,0,0,0-7.41-16.73,14.77,14.77,0,0,0-4.2-3.67,7.1,7.1,0,0,0-5.41-.71,19.32,19.32,0,0,0-20.91-3.48c-4.1,2-7.31,5.32-10.42,8.62-2.51,2.66-5.07,5.4-6.46,8.77s-1.38,7.59,1,10.37"/><path class="cls-6" d="M268.48,120.92a33.55,33.55,0,0,0-7.41-16.78,14.77,14.77,0,0,0-4.2-3.67,7.1,7.1,0,0,0-5.41-.71,25.7,25.7,0,0,1,11.08,21.17v3.56h3.58a1.73,1.73,0,0,0,2.22-1A4.42,4.42,0,0,0,268.48,120.92Z"/><circle class="cls-7" cx="214.73" cy="127.55" r="6.42"/><circle class="cls-8" cx="266.3" cy="127.55" r="6.42"/><path class="cls-9" d="M270.07,127.55a3.73,3.73,0,1,1-3.74-3.72h0a3.71,3.71,0,0,1,3.73,3.71h0Z"/><circle class="cls-8" cx="214.73" cy="127.55" r="3.72"/><path class="cls-7" d="M230.32,141.62l-1,26.52a11.17,11.17,0,0,0,10.9,11.44h.26a11.15,11.15,0,0,0,11.17-11.15h0v-.29l-1-26.52Z"/><path class="cls-8" d="M229.57,165a24.85,24.85,0,0,0,10.22,2.49A25.58,25.58,0,0,0,251.47,165l-.77-23.39H230.32Z"/><path class="cls-7" d="M266.32,136.49a25.78,25.78,0,0,1-25.77,25.79h-.74c-14-.38-25.06-12.26-25.06-26.31V125.36a25.78,25.78,0,0,1,25.76-25.8h0a25.77,25.77,0,0,1,25.81,25.75v0h0Z"/><path class="cls-8" d="M257.94,106.36A25.64,25.64,0,0,1,262.49,121v11.18a25.78,25.78,0,0,1-25.78,25.78H236a25.25,25.25,0,0,1-16.51-6.76,25.66,25.66,0,0,0,46.85-14.66V125.36A25.64,25.64,0,0,0,257.94,106.36Z"/><path class="cls-10" d="M230.42,128.65a2.26,2.26,0,1,1-2.27-2.25h0a2.24,2.24,0,0,1,2.26,2.24h0Z"/><circle class="cls-10" cx="252.87" cy="128.65" r="2.25"/><path class="cls-10" d="M237.77,149.89a1,1,0,0,0-1.06.93,1,1,0,0,0,.06.43,4.16,4.16,0,0,0,7.86,0,1,1,0,0,0-.57-1.29,1,1,0,0,0-.43-.07Z"/><path class="cls-5" d="M240.52,99.53h0c-13.44,0-24.58,8.47-25.78,21.6.24.21,0,1.76.89,2.4a6,6,0,0,0,6.58,0c1.85-1.18,3-3.26,4.73-4.55,2.27-1.64,5.29-1.77,8.08-1.51s5.59.86,8.36.44,5.59-2.17,6.18-4.91a8.87,8.87,0,0,0,2.56,5.85,25.72,25.72,0,0,0,5.12,3.87,15.26,15.26,0,0,0,5.39,2.5,7.16,7.16,0,0,0,3.67-.33A25.78,25.78,0,0,0,240.52,99.53Z"/><path class="cls-11" d="M240.61,140.83a1.89,1.89,0,0,1-.47-.06,1.67,1.67,0,0,1-1-.79.32.32,0,0,1,.12-.41.31.31,0,0,1,.41.13h0a1,1,0,0,0,.67.49,1.07,1.07,0,0,0,.89-.12,1.29,1.29,0,0,0,.41-1.64,1.54,1.54,0,0,0-1.63-.72.3.3,0,0,1-.36-.22.31.31,0,0,1,.23-.36,2.11,2.11,0,0,1,2.28,1,1.88,1.88,0,0,1-.6,2.42A1.61,1.61,0,0,1,240.61,140.83Z"/><path class="cls-12" d="M257.5,141.11c0,1.46-1.69,2.65-3.77,2.65s-3.77-1.19-3.77-2.65,1.69-2.64,3.77-2.64S257.5,139.65,257.5,141.11Z"/><path class="cls-12" d="M223.77,141.11c0,1.46,1.68,2.65,3.76,2.65s3.77-1.19,3.77-2.65-1.69-2.64-3.77-2.64S223.77,139.65,223.77,141.11Z"/><path class="cls-6" d="M266.32,124.83a25.39,25.39,0,0,0-2.14-9.82h0l-.46-1-.09-.19c-.14-.29-.3-.57-.45-.85l-.15-.28-.45-.76-.21-.34-.45-.69c-.09-.13-.17-.26-.26-.38l-.46-.63-.31-.41-.45-.56-.36-.43-.45-.51-.42-.45-.45-.46-.47-.46-.3-.28a25.64,25.64,0,0,1,4.53,14.6v4.24h.13a7.16,7.16,0,0,0,3.67-.33Z"/><path class="cls-5" d="M322.13,169.84a11.57,11.57,0,0,0-7.19-10.71,11.83,11.83,0,0,0-15.53-15.38,11.83,11.83,0,0,0-19.59-4.48,11.82,11.82,0,0,0-21.94,6.14,5.6,5.6,0,0,0,.06,1,11.82,11.82,0,0,0-10.28,17.31,11.82,11.82,0,0,0-2.17,16.57,11.68,11.68,0,0,0,2.61,2.5A9.45,9.45,0,0,0,249.56,193a11.57,11.57,0,1,0,16.34-.83h0a9.82,9.82,0,0,0-1-.81,9.39,9.39,0,0,0-1-10.63,11.81,11.81,0,0,0,1.42-13.14,11.74,11.74,0,0,0,4.62-9.36,5.59,5.59,0,0,0-.05-1,11.77,11.77,0,0,0,8.2-3.5,11.8,11.8,0,0,0,14.68,4.78,11.85,11.85,0,0,0,7,7.2,11.55,11.55,0,0,0,1.07,10.39,12.83,12.83,0,0,0-3.6,14.08,10.82,10.82,0,1,0,17.58,8.44,6.35,6.35,0,0,0-.07-1.23,12.83,12.83,0,0,0,6.19-17.07,12.63,12.63,0,0,0-1.75-2.76A11.44,11.44,0,0,0,322.13,169.84Z"/><path class="cls-6" d="M322.13,169.84a11.57,11.57,0,0,0-7.19-10.71,11.83,11.83,0,0,0-15.53-15.38,11.8,11.8,0,0,0-15-7.37h0A12.47,12.47,0,0,0,282,137.5a24.44,24.44,0,0,1,21.34,24.24v21a24.33,24.33,0,0,1-9.64,19.44,10.81,10.81,0,0,0,21-3.54,6.35,6.35,0,0,0-.07-1.23,12.83,12.83,0,0,0,6.19-17.07,12.63,12.63,0,0,0-1.75-2.76A11.43,11.43,0,0,0,322.13,169.84Z"/><path class="cls-7" d="M264.23,178.36a6.09,6.09,0,1,1-6.09-6.09h0A6.09,6.09,0,0,1,264.23,178.36Z"/><circle class="cls-8" cx="307.03" cy="178.4" r="6.09"/><path class="cls-9" d="M310.55,178.36a3.53,3.53,0,1,1-3.53-3.53h0A3.53,3.53,0,0,1,310.55,178.36Z"/><path class="cls-8" d="M261.67,178.36a3.53,3.53,0,1,1-3.53-3.53h0A3.53,3.53,0,0,1,261.67,178.36Z"/><path class="cls-7" d="M272.92,191.74,272,216.87a10.59,10.59,0,0,0,10.31,10.85h.28a10.57,10.57,0,0,0,10.59-10.57v-.28l-.92-25.13Z"/><path class="cls-8" d="M272.2,213.86a23.46,23.46,0,0,0,9.69,2.35,24.16,24.16,0,0,0,11.07-2.3l-.72-22.17H272.92Z"/><path class="cls-7" d="M307.07,186.88a24.45,24.45,0,0,1-24.41,24.48h-.77c-13.31-.36-23.75-11.62-23.75-24.94V176.28a24.44,24.44,0,0,1,24.44-24.44h0a24.45,24.45,0,0,1,24.49,24.41h0Z"/><path class="cls-8" d="M299.07,158.27a24.22,24.22,0,0,1,4.31,13.85v10.6a24.45,24.45,0,0,1-24.45,24.45h-.68a24,24,0,0,1-15.65-6.42,24.33,24.33,0,0,0,44.47-13.86v-10.6A24.35,24.35,0,0,0,299.07,158.27Z"/><circle class="cls-10" cx="270.87" cy="179.44" r="2.14"/><path class="cls-10" d="M292.16,179.44a2.14,2.14,0,1,0,2.2-2.08h0a2.15,2.15,0,0,0-2.13,2.13Z"/><path class="cls-10" d="M280,199.58a1,1,0,0,0-1,1,1.71,1.71,0,0,0,0,.32,3.94,3.94,0,0,0,5,2.44,3.89,3.89,0,0,0,2.44-2.44,1,1,0,0,0-.68-1.24h0a.86.86,0,0,0-.32,0Z"/><path class="cls-11" d="M282.67,191a1.74,1.74,0,0,1-.45-.06,1.58,1.58,0,0,1-1-.75.28.28,0,0,1,.12-.38h0a.28.28,0,0,1,.38.11h0a1,1,0,0,0,.64.48,1.1,1.1,0,0,0,.85-.12,1.22,1.22,0,0,0,.38-1.56A1.46,1.46,0,0,0,282,188a.27.27,0,0,1-.33-.19h0a.29.29,0,0,1,.2-.33h0a2,2,0,0,1,2.17,1,1.81,1.81,0,0,1-.58,2.3A1.5,1.5,0,0,1,282.67,191Z"/><ellipse class="cls-12" cx="295.11" cy="191.26" rx="3.57" ry="2.51"/><ellipse class="cls-12" cx="270.27" cy="191.26" rx="3.57" ry="2.51"/><path class="cls-5" d="M305.32,153.85a9.34,9.34,0,0,0-5.57,1.88,8.12,8.12,0,0,0-7.81-5.91,9.36,9.36,0,0,0-1.74.19,9.17,9.17,0,0,0-17.12-2.43,9.2,9.2,0,0,0-11.56,5.94,9.66,9.66,0,0,0-.44,2.77h0a9.09,9.09,0,0,0,.41,2.69,7.06,7.06,0,1,0,7.23,7.06,4.33,4.33,0,0,0,0-.72,9.26,9.26,0,0,0,1.57.14,9.1,9.1,0,0,0,8.12-4.91,9.1,9.1,0,0,0,5.81-.07,8.11,8.11,0,0,0,10.21,5.2,7.75,7.75,0,0,0,1.84-.87,9.23,9.23,0,1,0,9.06-11Z"/><path class="cls-6" d="M305.32,153.85a9.32,9.32,0,0,0-3,.52,24.54,24.54,0,0,1,1.13,7.37v10.37a9.23,9.23,0,0,0,3.83-18.06,9.36,9.36,0,0,0-1.9-.2Z"/><path class="cls-5" d="M271.62,195.14a14,14,0,0,0-8.7-13,14.32,14.32,0,0,0-18.79-18.61A14.3,14.3,0,0,0,226,154.64a14.57,14.57,0,0,0-5.53,3.47,14.3,14.3,0,0,0-26.54,7.42,8.86,8.86,0,0,0,.06,1.26,14.29,14.29,0,0,0-14.07,14.51,14.43,14.43,0,0,0,1.64,6.43,14.31,14.31,0,0,0-2.67,20,14.7,14.7,0,0,0,3.23,3.07,11.35,11.35,0,0,0,1.76,12.36,14,14,0,1,0,19.78-1h0a12.84,12.84,0,0,0-1.21-1,11.39,11.39,0,0,0-1.24-12.8,14.25,14.25,0,0,0,1.76-15.89,14.24,14.24,0,0,0,5.6-11.34,6.66,6.66,0,0,0-.07-1.26,14.21,14.21,0,0,0,9.93-4.23,14.29,14.29,0,0,0,17.76,5.79,14.38,14.38,0,0,0,8.41,8.71,13.87,13.87,0,0,0,1.3,12.57,15.49,15.49,0,0,0-4.36,17,13.08,13.08,0,1,0,21.27,10.21,12.29,12.29,0,0,0-.09-1.49,15.53,15.53,0,0,0,5.37-24A13.84,13.84,0,0,0,271.62,195.14Z"/><path class="cls-6" d="M271.62,195.14a14,14,0,0,0-8.7-13,14.32,14.32,0,0,0-18.79-18.61,14.27,14.27,0,0,0-21-7.56A29.58,29.58,0,0,1,249,185.36v25.38a29.53,29.53,0,0,1-11.65,23.5A13.08,13.08,0,0,0,262.76,230a12.29,12.29,0,0,0-.09-1.49,15.53,15.53,0,0,0,5.37-24A13.75,13.75,0,0,0,271.62,195.14Z"/><path class="cls-7" d="M201.56,205.49a7.37,7.37,0,1,1-7.38-7.36h0a7.36,7.36,0,0,1,7.38,7.36Z"/><path class="cls-8" d="M260.71,205.49a7.37,7.37,0,1,1-7.38-7.36h0a7.36,7.36,0,0,1,7.38,7.36Z"/><path class="cls-9" d="M257.61,205.49a4.27,4.27,0,1,1-4.27-4.27,4.27,4.27,0,0,1,4.27,4.27Z"/><path class="cls-8" d="M198.46,205.49a4.27,4.27,0,1,1-4.27-4.27,4.27,4.27,0,0,1,4.27,4.27Z"/><path class="cls-7" d="M212.07,221.63,211,252a12.8,12.8,0,0,0,12.47,13.13h.33a12.79,12.79,0,0,0,12.81-12.79V252l-1.12-30.41Z"/><path class="cls-8" d="M211.21,248.36a28.4,28.4,0,0,0,11.72,2.85,29.3,29.3,0,0,0,13.39-2.75l-.88-26.83H212.07Z"/><path class="cls-7" d="M253.32,215.75a29.59,29.59,0,0,1-29.56,29.61h-.83c-16.11-.45-28.74-14.07-28.74-30.18V202.93a29.57,29.57,0,0,1,29.55-29.57h0a29.56,29.56,0,0,1,29.58,29.55h0Z"/><path class="cls-8" d="M243.75,181.13A29.39,29.39,0,0,1,249,197.9v12.82a29.58,29.58,0,0,1-29.58,29.58h-.83a29,29,0,0,1-18.93-7.75,29.43,29.43,0,0,0,53.69-16.8V202.93A29.48,29.48,0,0,0,243.75,181.13Z"/><circle class="cls-10" cx="209.6" cy="206.76" r="2.58"/><circle class="cls-10" cx="237.93" cy="206.76" r="2.58"/><path class="cls-10" d="M220.61,231.12a1.21,1.21,0,0,0-1.21,1.19,2.16,2.16,0,0,0,0,.36,4.77,4.77,0,0,0,9,0,1.19,1.19,0,0,0-.79-1.49h0a1,1,0,0,0-.36-.06Z"/><path class="cls-11" d="M223.87,220.72a1.67,1.67,0,0,1-.54-.07,1.85,1.85,0,0,1-1.2-.91.35.35,0,0,1,.14-.46h0a.35.35,0,0,1,.46.14h0a1.3,1.3,0,0,0,1.77.43A1.47,1.47,0,0,0,225,218a1.71,1.71,0,0,0-1.86-.82.34.34,0,0,1-.41-.26.34.34,0,0,1,.25-.41h0a2.45,2.45,0,0,1,2.63,1.17,2.19,2.19,0,0,1-.7,2.78A1.85,1.85,0,0,1,223.87,220.72Z"/><path class="cls-12" d="M243.24,221.05c0,1.68-1.93,3-4.32,3s-4.32-1.35-4.32-3,1.93-3,4.32-3S243.24,219.36,243.24,221.05Z"/><path class="cls-12" d="M204.55,221.05c0,1.68,1.94,3,4.32,3s4.32-1.35,4.32-3-1.93-3-4.32-3S204.55,219.36,204.55,221.05Z"/><path class="cls-5" d="M251.26,175.79a11.14,11.14,0,0,0-6.73,2.27A9.82,9.82,0,0,0,233,171.14a11.1,11.1,0,0,0-20.7-2.94,10.85,10.85,0,0,0-3.4-.54,11.11,11.11,0,0,0-11.09,11.09h0a11.29,11.29,0,0,0,.48,3.26,8.54,8.54,0,1,0,8.75,8.53,6.32,6.32,0,0,0,0-.87,10.19,10.19,0,0,0,1.9.18,11,11,0,0,0,9.82-5.94,11,11,0,0,0,7-.09,9.83,9.83,0,0,0,12.41,6.27h0a9.43,9.43,0,0,0,2.16-1,11.17,11.17,0,1,0,11-13.29Z"/><path class="cls-6" d="M251.26,175.79a11.19,11.19,0,0,0-3.67.63,29,29,0,0,1,1.38,8.92v12.54a11.17,11.17,0,1,0,2.31-22.09Z"/></svg>